<svg height="480pt" viewBox="0 -52 480 480" width="480pt" xmlns="http://www.w3.org/2000/svg"><path d="m448 368.3125h-416l-8-32h432zm0 0" fill="#f98c96"/><path d="m456 336.3125h-432l-16-144h464zm0 0" fill="#ffd782"/><g fill="#d3843d"><path d="m16 296.3125h88v16h-88zm0 0"/><path d="m424 312.3125h-48v-16h41.449219l6.710937-33.597656 15.679688 3.136718-8 40c-.734375 3.75-4.019532 6.457032-7.839844 6.460938zm0 0"/><path d="m344 296.3125h16v16h-16zm0 0"/><path d="m64 264.3125h88v16h-88zm0 0"/><path d="m136 296.3125h48v16h-48zm0 0"/><path d="m16 224.3125h64v16h-64zm0 0"/><path d="m168 224.3125h96v16h-96zm0 0"/><path d="m248 264.3125h64v16h-64zm0 0"/><path d="m120 224.3125h16v16h-16zm0 0"/><path d="m320 216.3125h32v16h-32zm0 0"/><path d="m192 264.3125h16v16h-16zm0 0"/></g><path d="m8 144.3125h464v48h-464zm0 0" fill="#dd3e46"/><path d="m240 143.769531v48.542969h-32l-144-144 40.230469-40.308594zm0 0" fill="#f9bb4b"/><path d="m240 143.769531v48.542969h32l144-144-40.230469-40.308594zm0 0" fill="#f9bb4b"/><path d="m370.347656 42.652344 24.003906-24 11.3125 11.3125-24.003906 24zm0 0" fill="#fff69a"/><path d="m354.347656 58.660156 8-8 11.3125 11.3125-8 8zm0 0" fill="#fff69a"/><path d="m106.347656 61.96875 11.3125-11.3125 24.003906 24-11.316406 11.316406zm0 0" fill="#fff69a"/><path d="m472 136.324219h-132.695312l82.351562-82.355469c3.117188-3.121094 3.117188-8.179688 0-11.300781l-40.222656-40.3125c-1.503906-1.503907-3.539063-2.3476565-5.660156-2.3476565-2.125 0-4.160157.8437495-5.660157 2.3476565l-130.113281 130.101562-130.113281-130.109375c-1.5-1.503906-3.535157-2.347656-5.660157-2.347656-2.121093 0-4.15625.84375-5.660156 2.347656l-40.230468 40.320313c-3.117188 3.121093-3.117188 8.179687 0 11.300781l82.359374 82.355469h-132.695312c-4.417969 0-8 3.578125-8 8v48c0 .15625 0 .726562.046875.871093l16 144c0 .222657.160156.910157.191406 1.054688l8 32c.890625 3.5625 4.089844 6.0625 7.761719 6.0625h416c3.671875 0 6.871094-2.5 7.761719-6.0625l8-32c0-.144531.167969-.800781.191406-1.054688l16-144c0-.144531.046875-.714843.046875-.871093v-48c0-4.421875-3.582031-8-8-8zm-8 16v32h-172.6875l32-32zm-15.199219 176h-417.601562l-1.785157-16h74.585938v-16h-76.390625l-6.226563-56h58.617188v-16h-60.390625l-2.671875-24h446.125zm-73.039062-309 8.949219 8.964843-14.398438 14.402344 11.3125 11.3125 14.398438-14.363281 8.679687 8.699219-136 136h-20.703125v-37.257813zm-271.523438 0 127.761719 127.757812v37.230469h-20.6875l-136-136zm52.457031 133 32 32h-172.695312v-32zm285.058594 208h-403.507812l-4-16h411.507812zm0 0"/><path d="m417.449219 296.3125h-41.449219v16h48c3.800781.003906 7.078125-2.671875 7.839844-6.398438l8-40-15.679688-3.136718zm0 0"/><path d="m344 296.3125h16v16h-16zm0 0"/><path d="m64 264.3125h88v16h-88zm0 0"/><path d="m136 296.3125h48v16h-48zm0 0"/><path d="m168 224.3125h96v16h-96zm0 0"/><path d="m248 264.3125h64v16h-64zm0 0"/><path d="m120 224.3125h16v16h-16zm0 0"/><path d="m320 216.3125h32v16h-32zm0 0"/><path d="m192 264.3125h16v16h-16zm0 0"/><path d="m354.347656 58.660156 8-8 11.3125 11.3125-8 8zm0 0"/><path d="m106.347656 61.96875 11.3125-11.3125 24.003906 24-11.316406 11.316406zm0 0"/></svg>